<svg xmlns="http://www.w3.org/2000/svg" viewBox="0 0 2336.66 1251.48"><defs><style>.cls-1{opacity:0.5;}.cls-2{fill:#aec3ff;}.cls-3{opacity:0.4;}.cls-4{fill:#8c9df4;}.cls-5{fill:#505aba;}.cls-6{fill:#fff;}.cls-7{fill:#f99746;}.cls-8{fill:#bdd1f9;}.cls-9{fill:#d2e2f9;}.cls-10{fill:#35488b;}.cls-11{fill:#2c3a64;}.cls-12{fill:#dde7fe;}.cls-13{fill:#6c7aff;}.cls-14{fill:#8fadef;}.cls-15{fill:#f77d48;}.cls-16{fill:#ff8c64;}.cls-17{fill:#798ee8;}.cls-18{fill:#849def;}.cls-19{fill:#ffb27d;}.cls-20{fill:#2f539b;}.cls-21{fill:#233862;}.cls-22{fill:#6385db;}.cls-23{fill:#739af0;}.cls-24{fill:#ed985f;}.cls-25{fill:#ed7d2b;}.cls-26{fill:#ed975d;}.cls-27{fill:#ebf3fa;}.cls-28{fill:#113c68;}.cls-29{fill:#2a4e96;}.cls-30{fill:#15447c;}.cls-31{fill:#fca56b;}.cls-32{fill:#163560;}.cls-33{fill:#1f4d84;}.cls-34{fill:#b3cff9;}</style></defs><g id="Layer_2" data-name="Layer 2"><g id="_Layer_" data-name="&lt;Layer&gt;"><g class="cls-1"><g class="cls-1"><path class="cls-2" d="M1503.07,444.76S1477.3,240.69,1549.36,97.1c9.57-19.08,37.9-15.52,42.63,5.3.08.35.15.7.23,1.06C1599.72,139.14,1523.21,316.61,1503.07,444.76Z"/></g><g class="cls-1"><path class="cls-2" d="M1504.87,504.58S1544.29,231.64,1689.81,79c8.87-9.31,23.75-10.45,33.38-1.92,6.27,5.55,11,15.49,9.86,33.12C1730.14,157.19,1574,351.91,1504.87,504.58Z"/></g></g><g class="cls-3"><rect class="cls-4" x="187.22" y="186.19" width="113.85" height="390.87" rx="13.76" transform="translate(488.28 763.25) rotate(180)"/><path class="cls-5" d="M270.82,492.76a26.68,26.68,0,1,0-26.68,26.68A26.68,26.68,0,0,0,270.82,492.76Z"/><path class="cls-6" d="M244.14,522.42a29.51,29.51,0,1,1,29.51-29.51A29.55,29.55,0,0,1,244.14,522.42Zm0-53.37A23.86,23.86,0,1,0,268,492.91,23.89,23.89,0,0,0,244.14,469.05Z"/><rect class="cls-2" x="210.79" y="204.08" width="66.67" height="219.71" rx="5.08" transform="translate(488.25 627.86) rotate(180)"/><rect class="cls-7" x="218.6" y="212.03" width="49.69" height="8.81" rx="4.05" transform="translate(486.89 432.87) rotate(180)"/><path class="cls-5" d="M252.64,352.44v45.28a2.21,2.21,0,0,0,2.21,2.21h0a2.21,2.21,0,0,0,2.2-2.21V352.44a2.2,2.2,0,0,0-2.2-2.2h0A2.2,2.2,0,0,0,252.64,352.44Z"/><path class="cls-5" d="M252.64,290.14v45.28a2.2,2.2,0,0,0,2.21,2.2h0a2.2,2.2,0,0,0,2.2-2.2V290.14a2.21,2.21,0,0,0-2.2-2.21h0A2.21,2.21,0,0,0,252.64,290.14Z"/><path class="cls-5" d="M227.38,352.44v45.28a2.2,2.2,0,0,0,2.2,2.21h0a2.2,2.2,0,0,0,2.2-2.21V352.44a2.19,2.19,0,0,0-2.2-2.2h0A2.19,2.19,0,0,0,227.38,352.44Z"/><path class="cls-5" d="M227.38,290.14v45.28a2.19,2.19,0,0,0,2.2,2.2h0a2.19,2.19,0,0,0,2.2-2.2V290.14a2.2,2.2,0,0,0-2.2-2.21h0A2.2,2.2,0,0,0,227.38,290.14Z"/><path class="cls-5" d="M240.52,339.66v58.07a2.21,2.21,0,0,0,2.21,2.2h0a2.21,2.21,0,0,0,2.2-2.2V339.66a2.2,2.2,0,0,0-2.2-2.2h0A2.2,2.2,0,0,0,240.52,339.66Z"/><path class="cls-5" d="M240.52,261.33V319.4a2.21,2.21,0,0,0,2.21,2.2h0a2.21,2.21,0,0,0,2.2-2.2V261.33a2.2,2.2,0,0,0-2.2-2.2h0A2.2,2.2,0,0,0,240.52,261.33Z"/><rect class="cls-4" x="329.2" y="186.19" width="113.85" height="390.87" rx="13.76" transform="translate(772.24 763.25) rotate(-180)"/><path class="cls-5" d="M412.8,492.76a26.68,26.68,0,1,0-26.68,26.68A26.68,26.68,0,0,0,412.8,492.76Z"/><path class="cls-6" d="M386.12,522.42a29.51,29.51,0,1,1,29.51-29.51A29.55,29.55,0,0,1,386.12,522.42Zm0-53.37A23.86,23.86,0,1,0,410,492.91,23.89,23.89,0,0,0,386.12,469.05Z"/><rect class="cls-2" x="352.77" y="204.08" width="66.67" height="219.71" rx="5.08" transform="translate(772.21 627.86) rotate(180)"/><rect class="cls-7" x="360.58" y="212.03" width="49.69" height="8.81" rx="4.05" transform="translate(770.86 432.87) rotate(180)"/><path class="cls-5" d="M394.62,352.44v45.28a2.21,2.21,0,0,0,2.21,2.21h0a2.21,2.21,0,0,0,2.2-2.21V352.44a2.2,2.2,0,0,0-2.2-2.2h0A2.2,2.2,0,0,0,394.62,352.44Z"/><path class="cls-5" d="M394.62,290.14v45.28a2.2,2.2,0,0,0,2.21,2.2h0a2.2,2.2,0,0,0,2.2-2.2V290.14a2.21,2.21,0,0,0-2.2-2.21h0A2.21,2.21,0,0,0,394.62,290.14Z"/><path class="cls-5" d="M369.36,352.44v45.28a2.2,2.2,0,0,0,2.2,2.21h0a2.2,2.2,0,0,0,2.2-2.21V352.44a2.19,2.19,0,0,0-2.2-2.2h0A2.19,2.19,0,0,0,369.36,352.44Z"/><path class="cls-5" d="M369.36,290.14v45.28a2.19,2.19,0,0,0,2.2,2.2h0a2.19,2.19,0,0,0,2.2-2.2V290.14a2.2,2.2,0,0,0-2.2-2.21h0A2.2,2.2,0,0,0,369.36,290.14Z"/><path class="cls-5" d="M382.51,339.66v58.07a2.2,2.2,0,0,0,2.2,2.2h0a2.21,2.21,0,0,0,2.2-2.2V339.66a2.2,2.2,0,0,0-2.2-2.2h0A2.19,2.19,0,0,0,382.51,339.66Z"/><path class="cls-5" d="M382.51,261.33V319.4a2.2,2.2,0,0,0,2.2,2.2h0a2.21,2.21,0,0,0,2.2-2.2V261.33a2.2,2.2,0,0,0-2.2-2.2h0A2.19,2.19,0,0,0,382.51,261.33Z"/><rect class="cls-4" x="473.89" y="186.19" width="113.85" height="390.87" rx="13.76" transform="translate(1061.63 763.25) rotate(180)"/><path class="cls-5" d="M557.5,492.76a26.69,26.69,0,1,0-26.69,26.68A26.69,26.69,0,0,0,557.5,492.76Z"/><path class="cls-6" d="M530.81,522.42a29.51,29.51,0,1,1,29.51-29.51A29.55,29.55,0,0,1,530.81,522.42Zm0-53.37a23.86,23.86,0,1,0,23.86,23.86A23.89,23.89,0,0,0,530.81,469.05Z"/><rect class="cls-2" x="497.46" y="204.08" width="66.67" height="219.71" rx="5.08" transform="translate(1061.6 627.86) rotate(180)"/><rect class="cls-7" x="505.28" y="212.03" width="49.69" height="8.81" rx="4.05" transform="translate(1060.24 432.87) rotate(180)"/><path class="cls-5" d="M539.32,352.44v45.28a2.2,2.2,0,0,0,2.2,2.21h0a2.21,2.21,0,0,0,2.2-2.21V352.44a2.2,2.2,0,0,0-2.2-2.2h0A2.19,2.19,0,0,0,539.32,352.44Z"/><path class="cls-5" d="M539.32,290.14v45.28a2.19,2.19,0,0,0,2.2,2.2h0a2.2,2.2,0,0,0,2.2-2.2V290.14a2.21,2.21,0,0,0-2.2-2.21h0A2.2,2.2,0,0,0,539.32,290.14Z"/><path class="cls-5" d="M514.05,352.44v45.28a2.21,2.21,0,0,0,2.2,2.21h0a2.21,2.21,0,0,0,2.21-2.21V352.44a2.2,2.2,0,0,0-2.21-2.2h0A2.2,2.2,0,0,0,514.05,352.44Z"/><path class="cls-5" d="M514.05,290.14v45.28a2.2,2.2,0,0,0,2.2,2.2h0a2.2,2.2,0,0,0,2.21-2.2V290.14a2.21,2.21,0,0,0-2.21-2.21h0A2.21,2.21,0,0,0,514.05,290.14Z"/><path class="cls-5" d="M527.2,339.66v58.07a2.2,2.2,0,0,0,2.2,2.2h0a2.2,2.2,0,0,0,2.2-2.2V339.66a2.19,2.19,0,0,0-2.2-2.2h0A2.19,2.19,0,0,0,527.2,339.66Z"/><path class="cls-5" d="M527.2,261.33V319.4a2.2,2.2,0,0,0,2.2,2.2h0a2.2,2.2,0,0,0,2.2-2.2V261.33a2.19,2.19,0,0,0-2.2-2.2h0A2.19,2.19,0,0,0,527.2,261.33Z"/><path class="cls-4" d="M636.65,186.19H723a13.75,13.75,0,0,1,13.75,13.75V563.3A13.76,13.76,0,0,1,723,577.06H636.65A13.76,13.76,0,0,1,622.9,563.3V199.95a13.76,13.76,0,0,1,13.76-13.76Z" transform="translate(1359.64 763.25) rotate(180)"/><rect class="cls-2" x="646.47" y="204.08" width="66.67" height="219.71" rx="5.08" transform="translate(1359.61 627.86) rotate(180)"/><rect class="cls-7" x="654.28" y="212.03" width="49.69" height="8.81" rx="4.05" transform="translate(1358.26 432.87) rotate(180)"/><rect class="cls-4" x="766.7" y="186.19" width="113.85" height="390.87" rx="13.76" transform="translate(1647.24 763.25) rotate(180)"/><rect class="cls-2" x="790.27" y="204.08" width="66.67" height="219.71" rx="5.08" transform="translate(1647.21 627.86) rotate(180)"/><rect class="cls-7" x="798.08" y="212.03" width="49.69" height="8.81" rx="4.05" transform="translate(1645.86 432.87) rotate(180)"/><path class="cls-4" d="M201,628.3h86.33a13.76,13.76,0,0,1,13.76,13.76v363.36a13.75,13.75,0,0,1-13.75,13.75H201a13.76,13.76,0,0,1-13.76-13.76V642.05A13.76,13.76,0,0,1,201,628.3Z" transform="translate(488.28 1647.46) rotate(180)"/><circle class="cls-5" cx="244.14" cy="934.86" r="26.68"/><path class="cls-6" d="M244.14,964.53A29.51,29.51,0,1,1,273.65,935,29.55,29.55,0,0,1,244.14,964.53Zm0-53.37A23.86,23.86,0,1,0,268,935,23.88,23.88,0,0,0,244.14,911.16Z"/><rect class="cls-2" x="210.79" y="646.18" width="66.67" height="219.71" rx="5.08" transform="translate(488.25 1512.07) rotate(180)"/><rect class="cls-7" x="218.6" y="654.13" width="49.69" height="8.81" rx="4.05" transform="translate(486.89 1317.08) rotate(180)"/><path class="cls-5" d="M252.64,794.55v45.28a2.2,2.2,0,0,0,2.21,2.2h0a2.2,2.2,0,0,0,2.2-2.2V794.55a2.2,2.2,0,0,0-2.2-2.2h0A2.2,2.2,0,0,0,252.64,794.55Z"/><path class="cls-5" d="M252.64,732.24v45.29a2.2,2.2,0,0,0,2.21,2.2h0a2.2,2.2,0,0,0,2.2-2.2V732.24a2.21,2.21,0,0,0-2.2-2.2h0A2.21,2.21,0,0,0,252.64,732.24Z"/><path class="cls-5" d="M227.38,794.55v45.28a2.19,2.19,0,0,0,2.2,2.2h0a2.19,2.19,0,0,0,2.2-2.2V794.55a2.19,2.19,0,0,0-2.2-2.2h0A2.19,2.19,0,0,0,227.38,794.55Z"/><path class="cls-5" d="M227.38,732.24v45.29a2.19,2.19,0,0,0,2.2,2.2h0a2.19,2.19,0,0,0,2.2-2.2V732.24a2.2,2.2,0,0,0-2.2-2.2h0A2.2,2.2,0,0,0,227.38,732.24Z"/><path class="cls-5" d="M240.52,781.77v58.06a2.21,2.21,0,0,0,2.21,2.21h0a2.21,2.21,0,0,0,2.2-2.21V781.77a2.21,2.21,0,0,0-2.2-2.21h0A2.21,2.21,0,0,0,240.52,781.77Z"/><path class="cls-5" d="M240.52,703.44V761.5a2.21,2.21,0,0,0,2.21,2.21h0a2.21,2.21,0,0,0,2.2-2.21V703.44a2.21,2.21,0,0,0-2.2-2.21h0A2.21,2.21,0,0,0,240.52,703.44Z"/><path class="cls-4" d="M343,628.3h86.34A13.76,13.76,0,0,1,443,642.05v363.36a13.75,13.75,0,0,1-13.75,13.75H343a13.76,13.76,0,0,1-13.76-13.76V642.05A13.76,13.76,0,0,1,343,628.3Z" transform="translate(772.24 1647.46) rotate(180)"/><path class="cls-5" d="M412.8,934.86a26.68,26.68,0,1,0-26.68,26.69A26.68,26.68,0,0,0,412.8,934.86Z"/><path class="cls-6" d="M386.12,964.53A29.51,29.51,0,1,1,415.63,935,29.55,29.55,0,0,1,386.12,964.53Zm0-53.37A23.86,23.86,0,1,0,410,935,23.88,23.88,0,0,0,386.12,911.16Z"/><rect class="cls-2" x="352.77" y="646.18" width="66.67" height="219.71" rx="5.08" transform="translate(772.21 1512.07) rotate(180)"/><rect class="cls-7" x="360.58" y="654.13" width="49.69" height="8.81" rx="4.05" transform="translate(770.86 1317.08) rotate(180)"/><path class="cls-5" d="M394.62,794.55v45.28a2.2,2.2,0,0,0,2.21,2.2h0a2.2,2.2,0,0,0,2.2-2.2V794.55a2.2,2.2,0,0,0-2.2-2.2h0A2.2,2.2,0,0,0,394.62,794.55Z"/><path class="cls-5" d="M394.62,732.24v45.29a2.2,2.2,0,0,0,2.21,2.2h0a2.2,2.2,0,0,0,2.2-2.2V732.24a2.21,2.21,0,0,0-2.2-2.2h0A2.21,2.21,0,0,0,394.62,732.24Z"/><path class="cls-5" d="M369.36,794.55v45.28a2.19,2.19,0,0,0,2.2,2.2h0a2.19,2.19,0,0,0,2.2-2.2V794.55a2.19,2.19,0,0,0-2.2-2.2h0A2.19,2.19,0,0,0,369.36,794.55Z"/><path class="cls-5" d="M369.36,732.24v45.29a2.19,2.19,0,0,0,2.2,2.2h0a2.19,2.19,0,0,0,2.2-2.2V732.24a2.2,2.2,0,0,0-2.2-2.2h0A2.2,2.2,0,0,0,369.36,732.24Z"/><path class="cls-5" d="M382.51,781.77v58.06a2.2,2.2,0,0,0,2.2,2.21h0a2.21,2.21,0,0,0,2.2-2.21V781.77a2.21,2.21,0,0,0-2.2-2.21h0A2.2,2.2,0,0,0,382.51,781.77Z"/><path class="cls-5" d="M382.51,703.44V761.5a2.2,2.2,0,0,0,2.2,2.21h0a2.21,2.21,0,0,0,2.2-2.21V703.44a2.21,2.21,0,0,0-2.2-2.21h0A2.2,2.2,0,0,0,382.51,703.44Z"/><path class="cls-4" d="M487.64,628.3H574a13.76,13.76,0,0,1,13.76,13.76v363.36A13.75,13.75,0,0,1,574,1019.17H487.64a13.76,13.76,0,0,1-13.76-13.76V642.05A13.76,13.76,0,0,1,487.64,628.3Z" transform="translate(1061.63 1647.46) rotate(180)"/><path class="cls-4" d="M636.65,628.3H723a13.75,13.75,0,0,1,13.75,13.75v363.36A13.75,13.75,0,0,1,723,1019.17H636.65a13.76,13.76,0,0,1-13.76-13.76V642.05A13.76,13.76,0,0,1,636.65,628.3Z" transform="translate(1359.64 1647.46) rotate(180)"/><path class="cls-4" d="M780.45,628.3h86.33a13.76,13.76,0,0,1,13.76,13.76v363.36a13.75,13.75,0,0,1-13.75,13.75H780.45a13.76,13.76,0,0,1-13.76-13.76V642.05A13.76,13.76,0,0,1,780.45,628.3Z" transform="translate(1647.24 1647.46) rotate(180)"/><path class="cls-8" d="M156.76,1248.14h0a13.69,13.69,0,0,1-13.69-13.69V145.74a13.69,13.69,0,0,1,13.69-13.69h0a13.69,13.69,0,0,1,13.69,13.69V1234.45A13.69,13.69,0,0,1,156.76,1248.14Z"/><rect class="cls-8" x="143.07" y="577.11" width="790.84" height="10.99" transform="translate(1076.99 1165.21) rotate(180)"/><rect class="cls-8" x="143.07" y="1018.99" width="839.94" height="10.99" transform="translate(1126.09 2048.98) rotate(180)"/></g><path class="cls-9" d="M1823.77,509.16s-75.18,65.27-62.18,78.51,78.54-78.77,78.54-78.77,98.45,22.17,124.28,47c0,0-103.54,39.88-87.67,49.51s125.53-26.86,125.53-26.86,83.82,44.36,61.25,97-58.68,59.26-71.65,53.39-81.75-61.8-87.09-51.35,30.15,62,62.75,74.66c0,0-85.34,48.42-120.38,14.79s-28.19-66.38-50.22-86.77-44.19-27.64-37.46-12,49.8,42.81,56,73.93,13.67,53.2-27.24,32.54-100.51-75.19-91.7-112.27c.39-1.62.75-3.16,1.1-4.64a18.09,18.09,0,0,0-1.1,4.64c-9.49-1.36-33.53,9-51.26,17.5-2.83,1.6-6.94,3.65-12.71,6.29h0c-2.51,1.28-4.54,2.33-6,3.08-37,21.21-72.87,80-72.87,80l-9.12-3.94c26.12-67.21,90.5-88.45,90.5-88.45,46.82-20.18,70.22-51.58,70.22-51.58s-37.66-91.5,34.66-117.92C1740,507.42,1790.27,495.84,1823.77,509.16Z"/><rect class="cls-10" x="2096.12" y="838.48" width="64.67" height="208.62" transform="translate(4256.91 1885.59) rotate(180)"/><rect class="cls-11" x="1940.17" y="838.48" width="155.95" height="208.62" transform="translate(4036.3 1885.59) rotate(180)"/><path class="cls-12" d="M2139.25,864.54a10.8,10.8,0,1,0-10.79,10.79A10.79,10.79,0,0,0,2139.25,864.54Z"/><path class="cls-13" d="M2136.09,864.54a7.64,7.64,0,1,0-7.63,7.63A7.64,7.64,0,0,0,2136.09,864.54Z"/><rect class="cls-14" x="2113.01" y="890.54" width="30.42" height="54.95" transform="translate(4256.44 1836.03) rotate(180)"/><rect class="cls-10" x="1975.48" y="838.48" width="64.67" height="208.62" transform="translate(4015.63 1885.59) rotate(180)"/><rect class="cls-11" x="1819.53" y="838.48" width="155.95" height="208.62" transform="translate(3795.02 1885.59) rotate(180)"/><path class="cls-12" d="M2018.61,864.54a10.8,10.8,0,1,0-10.79,10.79A10.79,10.79,0,0,0,2018.61,864.54Z"/><path class="cls-13" d="M2015.45,864.54a7.63,7.63,0,1,0-7.63,7.63A7.64,7.64,0,0,0,2015.45,864.54Z"/><rect class="cls-14" x="1992.37" y="890.54" width="30.42" height="54.95" transform="translate(4015.16 1836.03) rotate(180)"/><rect class="cls-10" x="1865.18" y="838.48" width="64.67" height="208.62" transform="translate(3795.02 1885.59) rotate(180)"/><rect class="cls-11" x="1709.23" y="838.48" width="155.95" height="208.62" transform="translate(3574.4 1885.59) rotate(180)"/><path class="cls-12" d="M1908.3,864.54a10.79,10.79,0,1,0-10.79,10.79A10.79,10.79,0,0,0,1908.3,864.54Z"/><path class="cls-13" d="M1905.14,864.54a7.63,7.63,0,1,0-7.63,7.63A7.64,7.64,0,0,0,1905.14,864.54Z"/><rect class="cls-14" x="1882.06" y="890.54" width="30.42" height="54.95" transform="translate(3794.54 1836.03) rotate(180)"/><rect class="cls-15" x="1699.51" y="974.34" width="365.37" height="269.95" transform="translate(3764.39 2218.63) rotate(180)"/><rect class="cls-16" x="1895.31" y="974.34" width="289.69" height="269.95" transform="translate(4080.3 2218.63) rotate(180)"/><rect class="cls-11" x="2010.7" y="1000.42" width="91.93" height="17.99" rx="8.45" transform="translate(4113.33 2018.83) rotate(180)"/><path class="cls-17" d="M1149.15,621.53,1099.74,1209s-5.17,35.61,21.32,35.67c43.55.11,216.78,0,216.78,0s-32.78-7.41-32.38-24.09c.47-19.66,57.75-604.64,57.75-604.64Z"/><path class="cls-2" d="M1354.15,1234c-8.57,0-176.28.31-218.69-.23-18.49-.23-21.73-16.44-21.88-26.92a52.24,52.24,0,0,1,.56-8.75l1.28-15.27,3.28-38.92,2.89-34.38,3.72-44.19,3.13-37.29,35.11-417.46,214.06-5.55s-24.13,244.81-41.2,423c-1.9,19.85-3.71,38.89-5.39,56.66q-.81,8.52-1.57,16.62c-1.59,16.87-3,32.35-4.29,46-.66,7.2-1.28,13.9-1.83,20-2.18,24-3.45,39.38-3.47,42.3a24.55,24.55,0,0,0,.42,4.75C1323.79,1233.18,1350.94,1234,1354.15,1234Z"/><polygon class="cls-2" points="629.3 301.58 749.66 785.02 766.14 851.23 822.19 1076.4 1863.6 1076.4 1656.99 301.58 629.3 301.58"/><polygon class="cls-17" points="629.3 301.58 612.62 307.14 800.02 1093.22 822.19 1076.4 629.3 301.58"/><polygon class="cls-18" points="800.02 1093.22 1835.02 1093.22 1863.6 1076.4 822.19 1076.4 800.02 1093.22"/><rect class="cls-2" x="1163.48" y="1234.02" width="224.09" height="10.65" transform="translate(2551.05 2478.7) rotate(180)"/><polygon class="cls-4" points="1330.61 1093.21 1329.45 1101.36 1118.7 1143.93 1121.59 1109.55 1122.97 1093.21 1330.61 1093.21"/><g class="cls-1"><path class="cls-4" d="M1354.15,1234c-8.57,0-176.28.31-218.69-.23-18.49-.23-21.73-16.44-21.88-26.92l209.75-39.47c-2.18,24-3.45,39.38-3.47,42.3a24.55,24.55,0,0,0,.42,4.75C1323.79,1233.18,1350.94,1234,1354.15,1234Z"/></g><polygon class="cls-4" points="629.3 301.58 1656.99 301.58 1823.74 924.29 784.33 924.29 629.3 301.58"/><polygon class="cls-5" points="1775.27 897.31 813.04 897.31 778.65 760.33 765.35 707.33 759.92 685.72 724.58 544.95 722.75 537.62 704.07 463.21 695.71 429.91 688.58 401.51 682.76 378.35 671.87 334.94 1620.23 334.94 1632.2 378.35 1638.58 401.51 1646.41 429.91 1655.59 463.21 1716.06 682.54 1716.06 682.56 1721.17 701.14 1723.56 709.76 1765.31 861.19 1775.27 897.31"/><path class="cls-11" d="M571.93,636.11s2.51-27.35-28-27.35c0,0,9.26,2.51,14,7.54,0,0-19.5-11.45-40.71,6.14s-8,61.68-14.48,70-31.57,10-28.5,37.12S554,790.59,549,813c0,0,30-44.15,8.56-64.31,0,0,10.47,9.86,11.54,21.59,0,0,2.84-22.89-11.73-30.21-12.88-6.48-23.44-30.17-22.33-34.4S571.93,636.11,571.93,636.11Z"/><path class="cls-19" d="M541.84,767.44s22.83,94.45,45.24,113.33c13.48,11.35,53.53,37.39,53.53,37.39L624,924.21s-55.56-18.76-68-33.38-46.49-87.9-46.49-87.9Z"/><path class="cls-7" d="M673.66,952.69,668.3,939.4a37.69,37.69,0,0,0-34.95-23.57h-99v330.92H943.81V978.63H712.12A41.49,41.49,0,0,1,673.66,952.69Z"/><path class="cls-20" d="M327.26,933.37c.21.36.42.74.63,1.11,5,8.69,16.46,30,29.08,53.25,6,11,12.23,22.55,18.16,33.37,10.22,18.67,19.51,35.3,24.94,44.09,5.51,8.94,9.57,15.22,11.22,17.73h0a4.25,4.25,0,0,1,.54,2.59,134.48,134.48,0,0,0,.36,23.42c7.61,75.75,58.69,116.35,58.69,116.35l15.19,2.24s-21.49-79.62-27.83-124.64c-1.06-7.63-1.53-13.81-1.16-17.85,1.13-11.73-1-28.94-4.9-48.71-7-35.14-19.88-78.26-31.06-112.77-.7-2.21-22.07-79.47-22.07-79.47-17.92,15.67-83.31,22.13-83.31,22.13S304.66,893.18,327.26,933.37Z"/><path class="cls-21" d="M518,1246.75H454.57s-1.52-9.66,1.79-17c3.17-7,7.69-7.26.58-18.28,4,4.15,17,5.86,26.14,4.63,1.12,1.82,7.24,14,11,16.73C498.21,1235.81,516.68,1234.75,518,1246.75Z"/><path class="cls-21" d="M327.26,933.37c.21.36.42.74.63,1.11,5,8.69,32,58.59,44.64,81.87C357.9,956.18,368.08,896,368.08,896Z"/><path class="cls-11" d="M563.28,632.27c.42-1.67-36.2,16.55-38.06,18.61-17.17,19-12.28,43.91-2.45,44.14,6.3.16,5.08,10.64,5.08,10.64L598.06,676S589.61,626.66,563.28,632.27Z"/><path class="cls-22" d="M539.69,753.25s10.68,21.35,9.35,38.67c0,0-12.89,20.34-46.3,25.48C502.74,817.4,531.47,753.24,539.69,753.25Z"/><path class="cls-20" d="M376.68,870.94l.22-11.85c-23.63,3-81.45-28.23-81.45-28.23s-24.71,16.44-28.1,63.37C265.7,917.14,255.26,1014,254.1,1043c-.42,10.49-.56,18-.61,21a0,0,0,0,1,0,0,4.17,4.17,0,0,1-1,2.44,134.7,134.7,0,0,0-12.8,19.62c-36,67.06-17.19,158.18-17.19,158.18l8.37-2.12s30.48-94.47,50.39-135.33c3.38-6.93,6.46-12.32,9-15.44,7.49-9.1,15.39-24.55,23.18-43.14C328.17,1013,376.68,870.94,376.68,870.94Z"/><path class="cls-21" d="M272.91,1246.75H209.52s-1.52-9.66,1.79-17c3.17-7,8.14-10.23,6.95-18.74,4,4.15,10.59,8.79,19.76,7.56,1.12,1.82,7.25,11.56,11,14.26C253.16,1235.81,271.63,1234.75,272.91,1246.75Z"/><path class="cls-23" d="M498.46,831c-8.51,1.45,1.39,8.22-10.32,9.49-16.67,1.82-33.88,3.06-42.89,6.66-3.29,1.31-5.49,2.93-6.18,5-3.9,11.75-28.65,31.94-28.65,31.94-110.38-5-117.49-54.22-117.49-54.22,71.64-69.57,132.58-107.5,183-112.19,12.26-1.14,28.78.39,36.54,3.84,17.61,7.85,27.27,31.71,27.27,31.71S530.81,825.5,498.46,831Z"/><path class="cls-22" d="M488.14,840.51c-16.67,1.82-33.88,3.06-42.89,6.66-3.69-55,22.29-96.46,22.29-96.46S484.49,819.68,488.14,840.51Z"/><path class="cls-19" d="M502.52,741.39s-41.92-2.29-49.36,24,14,131.36,18.59,142.2c8.4,19.74,50.78,78.52,50.78,78.52l13.58-7s-27.28-86.06-33.37-94.58C493.18,871.16,515.07,752.84,502.52,741.39Z"/><path class="cls-19" d="M536.11,979.11a62,62,0,0,1,6.33,6.49c2.82,3.45.34,4.69,8.43,20.29,0,0-.41,2.17-2.17,1.77s-7.87-6.45-11-6c0,0-2.24,1.84-2.49,8-.23,5.72-.24,18.37-1.24,20.74s-8.27-10-11.85-18.88c-3.14-7.82-.08-34.19-.08-34.19Z"/><path class="cls-23" d="M444.89,800.61c.11.62,39.67,7.28,64.41-5.28,0,0,20.67-64.75-8.87-61.65s-47,12.4-47.77,26.54S444.89,800.61,444.89,800.61Z"/><path class="cls-19" d="M511.47,726.08c.43,5.24,1.1,11.37,8,18.44,5.25,5.41,12.84,9.63,18.18,4.3a57.81,57.81,0,0,0,8.25-10c4.61-7.92,10.1-16,10.1-16l-23.73-20.79-1.41-1.24a60.5,60.5,0,0,1-17.68,20.05C511.53,722.07,511.31,724.07,511.47,726.08Z"/><path class="cls-24" d="M556,722.84s-5.48,8.08-10.09,16c-14.75-9.09-14.76-27.34-13.63-36.8Z"/><path class="cls-19" d="M556.61,733.26s-35.8-19.92-23.05-42,16.71-39.57,40.11-27.78,22.94,22.76,20.48,31.17S566.25,737.87,556.61,733.26Z"/><path class="cls-11" d="M600.2,681.73c-1.64-9.81-6.63-10.75-10.11-10.1-13.22-21.86-34.82-13.33-34.82-13.33a48.75,48.75,0,0,1-28.22,17s4.15,7.73,21.27,12.52c5.23,1.46,11.17.57,16.89-1.35a95.75,95.75,0,0,1-24.3,9.16c22.56,2.06,44-18.56,46.25-20.77,1,3.2,2.87,9.89,1.78,14.78-1.49,6.65-7.39,18.69-3.79,20.25C585.15,709.84,602.66,696.45,600.2,681.73Z"/><path class="cls-19" d="M647.16,918.21s-10,7.49-2.46,12.39,21,6.22,21,3C665.91,922.82,660.53,915.15,647.16,918.21Z"/><rect class="cls-21" y="1244.75" width="2336.66" height="6.73" rx="2.76"/><path class="cls-7" d="M886.41,500.5l-8.88-13.11c-9.52-14.05-25.67-23.25-40.82-23.25H739.09L756,526.08l67.22,245.79a25.34,25.34,0,0,0,24.44,18.65H1199a25.34,25.34,0,0,0,24.45-32l-63.56-232.42H931.33C914.65,526.08,896.88,516,886.41,500.5Z"/><path class="cls-19" d="M896.54,426.77a5.41,5.41,0,0,0-1,5.8,0,0,0,0,0,0,0c1.4,3.87,6,8.2,11.4,12.52.69.55,1.3,1.06,1.83,1.52l.41.37.32.29c5,4.62,3.12,5.68,12.13,15.06,10.26,10.69,17.33,10.88,19.34,9.91,1.71-.83-1.75-6.5-5.58-12.87-.18-.31-.36-.62-.56-.93-.51-.84-1-1.7-1.52-2.56-4.49-7.66-3.33-11.26-2.26-22.67.87-9.27,14.44-51.78,14.44-51.78l-19.68-3.4s-5.94,33.86-12.47,39.07c-3.49,2.78-7.4,2.81-10.76,4.87-.24.14-.47.29-.7.44A25.7,25.7,0,0,0,896.54,426.77Z"/><path class="cls-21" d="M896.54,426.77a5.41,5.41,0,0,0-1,5.8,0,0,0,0,0,0,0c1.72,3.87,6.23,8.17,11.42,12.48.68.56,1.28,1.08,1.81,1.56l.41.37.32.29c5,4.62,3.12,5.68,12.13,15.06,10.26,10.69,17.33,10.88,19.34,9.91,1.71-.83-1.75-6.5-5.58-12.87a43.77,43.77,0,0,1-18.3-13.49c-6-7.61-10-17.3-14-23.25l-1.16-.22A25.7,25.7,0,0,0,896.54,426.77Z"/><path class="cls-19" d="M1055.23,414.53c1.21,6.07,9.87,5.06,19.55,2.7s7.37.45,21.14-1.07,17.94-6.65,18.36-8.7c.38-1.81-6.42-2.46-13.72-3.3l-2.76-.33c-8.24-1-14.27-6.36-21.75-10.72-7.09-4.14-17.66-21-17.66-21l-18.89,1.49s9.91,15.06,13.74,21.6c2.25,3.85,2.13,8.94,1.85,12.87A24.11,24.11,0,0,0,1055.23,414.53Z"/><path class="cls-21" d="M1074.78,417.23c9.67-2.36,7.37.45,21.14-1.07s17.94-6.65,18.36-8.7c.38-1.81-6.42-2.46-13.72-3.3l-.07.14a38.82,38.82,0,0,1-19.72,6.12c-9.34.23-19.23-2.45-25.68-2.35a24.11,24.11,0,0,0,.14,6.46C1056.44,420.6,1065.1,419.59,1074.78,417.23Z"/><path class="cls-25" d="M982.91,293.77l-17.67,47.49-23.07,62a37.42,37.42,0,0,1-12.24-1.12c-5.51-1.6-11.84-5.77-11.84-5.77s6.43-66.59,18.38-104.81c3.06-9.81,6.49-17.75,10.27-22.21C965.26,247.49,982.91,293.77,982.91,293.77Z"/><path class="cls-7" d="M965,218.33c-10-3.25-36.27-.07-64.7,5.07a19.3,19.3,0,0,1-19.92-9h0l-71.56-5.61s-23.63,52.36-10.72,85.73c1.9,4.91,6.07,8,12.51,8.07h0s43.24.08,57.07.08c35.59,0,75.33-24.44,80.47-25.46,8.42-1.68,11.77,15.14,20.18,32.81s79,78.27,79,78.27,10.86.11,15.35-1.57c4.82-1.81,6.59-4.16,6.59-4.16S991.06,226.75,965,218.33Z"/><path class="cls-21" d="M872.84,4.25A25.33,25.33,0,0,0,859.17.69a37.46,37.46,0,0,1-6.6-.41c-27.31-4-43.77,35.66-44.74,47.64-1.77,22-13.42,25.36-29.81,39.14-32.87,27.63-23.25,59.74-5.28,71.68,10.78,7.16,29.78,0,29.78,0,.27.19,52-28.88,77.47-42.9C918.19,110.43,888.19,13.39,872.84,4.25Z"/><path class="cls-19" d="M858.63,103.89c.11.08-12.54,4.39-21,.64-8-3.52-14-16.61-13.86-16.62,3.62-.16,7.6-3.33,10.66-24.09l1.55.55,25.91,9.33S860,82,858.79,89.94C857.77,96.59,857.22,103,858.63,103.89Z"/><path class="cls-26" d="M861.89,73.7s-1,4.49-2.55,12.87c-14.88-2.68-21.27-14.15-23.36-22.2Z"/><path class="cls-19" d="M865.75,82s-35.46-4.77-32.15-26.81,1-37.49,23.74-35.38S883.25,31,883.93,38.58,875.06,82.63,865.75,82Z"/><path class="cls-21" d="M882.64,26.5s-22.7,19.56-38.14,21.13-21.29-3.39-21.29-3.39A60.35,60.35,0,0,0,837.8,24.49a10.82,10.82,0,0,1,9-6.39C857.77,17.15,878.68,16.72,882.64,26.5Z"/><path class="cls-21" d="M868.46,24.74s7.59,7.35,10,12.8c2.3,5.25,3,17.82,1.15,22.81,0,0,11.84-23,5.15-34.18C877.64,14.32,868.46,24.74,868.46,24.74Z"/><path class="cls-20" d="M888.47,156.14c-1.09,71.78-.31,56.78-8.16,63.59-1.9,1.64-7.22,2.62-14.22,3.08-22,1.45-60.7-2.19-62.17-6.26-5.07-14.07-1.49-18.44-5.71-40-.45-2.3-1-4.78-1.63-7.48-3.53-14.8-7-19.84,5.57-43.61,11.37-21.53,23.18-39,24.25-38.38,30,17.81,32.39,2.85,32.39,2.85S889,121.13,888.47,156.14Z"/><path class="cls-7" d="M965.24,341.26l-23.07,62a37.42,37.42,0,0,1-12.24-1.12c-5.51-1.6-11.84-5.77-11.84-5.77s6.43-66.59,18.38-104.81Z"/><path class="cls-20" d="M858.79,89.94s30.85,5.24,34.47,18.52,15.51,93.9,15.51,93.9-8.7,8.49-15.94,1.24-22.78-75.43-22.78-75.43Z"/><path class="cls-21" d="M866.09,222.81c-22,1.45-60.7-2.19-62.17-6.26-5.07-14.07-1.49-18.44-5.71-40l10.62-29.9s-1.76,33.29,8,42.05,40.19,16.92,45,24.24A26.74,26.74,0,0,1,866.09,222.81Z"/><path class="cls-19" d="M840.88,208.8s21.72-4.83,25.22-2.9,12.06,8.95,13.13,11.39-7.8-1.86-10.68-2.63c-1.87-.5-6.79,1.2-9.23,2-10.25,3.41-16.53,1.65-16.53,1.65Z"/><path class="cls-20" d="M826.38,87.08s-29.16,1.78-39.26,15.86c-14.21,19.81-42.43,104.26-26.28,115.53,18.19,12.69,82.79,3.34,82.79,3.34s2.16-10.05-.83-14.91-51.6-12.73-53.84-15S817,148.19,817,141.46,826.38,87.08,826.38,87.08Z"/><path class="cls-19" d="M867.15,211.94s4.54,5.87,6,6.57a4.36,4.36,0,0,0,2.45.53l-3.06-5.52Z"/><path class="cls-19" d="M866.1,205.9l13.22,6.43a2.34,2.34,0,0,1-2.19.84,31,31,0,0,1-5.73-1.58Z"/><polygon class="cls-21" points="979.05 221.04 840.88 220.99 840.87 224.04 977.83 224.09 979.05 221.04"/><polygon class="cls-21" points="873.18 224.05 977.83 224.09 1009.33 145.82 904.85 145.79 873.18 224.05"/><path class="cls-6" d="M951.42,184.94c.79-2.75-.8-5-3.55-5a7.13,7.13,0,0,0-6.41,5c-.79,2.75.8,5,3.55,5A7.14,7.14,0,0,0,951.42,184.94Z"/><g class="cls-1"><polygon class="cls-4" points="1467.57 482.84 1438.63 445.87 1437.26 444.12 1435.63 443.82 1302.05 419.24 1257.1 663.58 1430.27 695.44 1468.72 486.43 1469.04 484.71 1467.57 482.84"/></g><polygon class="cls-4" points="1380.68 407.03 1380.75 408.77 1388.99 621.13 1213.04 627.95 1203.41 379.71 1339.13 374.45 1340.79 374.38 1342.5 375.79 1378.84 405.52 1380.68 407.03"/><path class="cls-21" d="M1264.94,467.84,971.32,484.21a1.07,1.07,0,0,0-1,1.13l21.43,384.5a1.08,1.08,0,0,0,1.14,1l293.2-16.34a1.07,1.07,0,0,0,1-1.13l-21.45-384.92A.67.67,0,0,0,1264.94,467.84Z"/><path class="cls-27" d="M1264.4,842.37,1015.69,858a13.54,13.54,0,0,1-14.36-12.66l-21.2-338A13.54,13.54,0,0,1,992.79,493L1241.5,477.4a13.55,13.55,0,0,1,14.36,12.66l21.2,338A13.53,13.53,0,0,1,1264.4,842.37Z"/><path class="cls-8" d="M1166.25,533.15,1009.79,543a.13.13,0,0,1-.15-.13l-.25-3.91a.15.15,0,0,1,.14-.15L1166,529a.15.15,0,0,1,.16.13l.24,3.91A.15.15,0,0,1,1166.25,533.15Z"/><path class="cls-8" d="M1168.36,566.74l-156.46,9.82a.16.16,0,0,1-.16-.14l-.24-3.91a.13.13,0,0,1,.13-.15l156.46-9.82a.16.16,0,0,1,.16.14l.24,3.91A.14.14,0,0,1,1168.36,566.74Z"/><path class="cls-8" d="M1227.08,546.19l-216.24,13.57a.13.13,0,0,1-.15-.13l-.25-3.91a.16.16,0,0,1,.14-.16L1226.82,542a.15.15,0,0,1,.15.14l.24,3.91A.13.13,0,0,1,1227.08,546.19Z"/><path class="cls-8" d="M1130.55,673.53l-106.45,6.68a.12.12,0,0,1-.13-.11l-.25-4a.12.12,0,0,1,.11-.13l106.45-6.68a.13.13,0,0,1,.13.11l.25,4A.13.13,0,0,1,1130.55,673.53Z"/><path class="cls-8" d="M1170.18,654.18,1023,663.41a.12.12,0,0,1-.13-.11l-.24-4a.12.12,0,0,1,.11-.13L1169.91,650a.12.12,0,0,1,.13.11l.25,4A.12.12,0,0,1,1170.18,654.18Z"/><path class="cls-8" d="M1181,689.13,1024.56,699a.15.15,0,0,1-.15-.14l-.24-3.91a.13.13,0,0,1,.13-.15l156.46-9.82a.15.15,0,0,1,.15.14l.25,3.91A.15.15,0,0,1,1181,689.13Z"/><path class="cls-8" d="M1199.58,704.83l-174,10.91a.12.12,0,0,1-.13-.12l-.25-3.94a.12.12,0,0,1,.12-.13l174-10.92a.13.13,0,0,1,.14.12l.25,3.94A.14.14,0,0,1,1199.58,704.83Z"/><path class="cls-8" d="M1140.37,738.15l-112,7a.14.14,0,0,1-.13-.12l-.25-3.95a.12.12,0,0,1,.12-.13l112-7a.13.13,0,0,1,.13.12l.25,3.95A.12.12,0,0,1,1140.37,738.15Z"/><path class="cls-8" d="M1142.48,771.74l-112,7a.13.13,0,0,1-.13-.11l-.25-4a.12.12,0,0,1,.12-.13l112-7a.14.14,0,0,1,.13.12l.24,4A.11.11,0,0,1,1142.48,771.74Z"/><path class="cls-8" d="M1184.22,752.26,1029.46,762a.11.11,0,0,1-.13-.11l-.25-4a.13.13,0,0,1,.11-.13L1184,748.06a.14.14,0,0,1,.13.12l.24,4A.11.11,0,0,1,1184.22,752.26Z"/><path class="cls-16" d="M1185,451.09,1048,458.72c-9,.5-16,7.71-15.5,16.09l1.15,20.69a3.66,3.66,0,0,0,4,3.3l162.06-9a3.65,3.65,0,0,0,3.58-3.72l-1.15-20.69C1201.67,457,1194,450.59,1185,451.09Z"/><path class="cls-19" d="M1432.34,617.28s-2.84-6.4-4.69-9.43-9.71-11.91-11.05-9.9-6.7,15.54-3.86,19.33-.18,10.38,14,14.38Z"/><path class="cls-25" d="M1589.77,576.87S1517.25,637.4,1489,631.79c-22.11-4.38-57.07-15.47-57.07-15.47s-9.22,8.78-6.61,19.3c0,0,44.53,41.9,76.26,42.17,49.59.42,73-24.58,73-24.58Z"/><path class="cls-28" d="M1716.94,1215.34s-2.11,34-8.67,34.44c-.88.07-33.33.07-33.33.07l-41.42-.24s.27-10,12.38-12.1,32.37-10.61,39.71-26.62C1693.32,1194.06,1716.94,1215.34,1716.94,1215.34Z"/><path class="cls-29" d="M1719.33,1217.69s-12.59,4.22-22.42,4.22a82.31,82.31,0,0,1-20.94-3s-2.37-22.93-15.41-73.44c-6.84-26.47-16.61-60.52-30.51-102.82-38.42-116.9-50.1-185.29-51.17-191.77-.05-.34-.08-.51-.08-.51l.13-.06,118.12-51.86s-14.6,161.12,4,223a261,261,0,0,1,6.76,29.63C1719.6,1118.23,1719.33,1217.69,1719.33,1217.69Z"/><path class="cls-21" d="M1660.56,1145.48c-6.84-26.47-16.61-60.52-30.51-102.82-38.42-116.9-50.1-185.29-51.17-191.77,0-.19,0-.37,0-.57l118.12-51.86s-14.6,161.12,4,223C1703.69,1030.07,1660.56,1145.48,1660.56,1145.48Z"/><path class="cls-30" d="M1624.68,1215.34s-2.1,34-8.67,34.44c-.88.07-33.32.07-33.32.07l-41.42-.24s.27-10,12.37-12.1,32.38-10.61,39.71-26.62C1601.07,1194.06,1624.68,1215.34,1624.68,1215.34Z"/><path class="cls-29" d="M1557.71,802.26s-1.53,104.41,16.53,232.6,12,182.62,12,182.62,12.41,4,17.42,4.43c12.76,1,25.84-3,25.84-3s25.86-128.25,18.44-192.41,35.41-220.18,35.41-220.18Z"/><path class="cls-19" d="M1641.47,557.92,1618.41,573l-21-5.94c-3.84-5.47-4.85-16-4.91-25.17a156.19,156.19,0,0,1,.82-16.77l31.11-13.73,11.61-5.12c0,.18-.91,9.53-1,10.9C1632.84,541.45,1641.47,557.92,1641.47,557.92Z"/><path class="cls-7" d="M1557.18,831.28c28.7,27.71,137.32,23.05,144-7.48s-7.3-259.88-56.32-274.29c-10.18-3-64.56,14.59-64.56,14.59a343.74,343.74,0,0,0-14.13,50.74c-1.09,5.54-4.26,64.15-6.63,119-1.11,25.65-2,50.47-2.53,68.65C1556.59,819.49,1556.57,830.68,1557.18,831.28Z"/><path class="cls-31" d="M1632.68,517.64c-6.31,10.67-28.45,20-40.18,24.29a156.19,156.19,0,0,1,.82-16.77l31.11-13.73C1631.31,511.34,1635.5,512.87,1632.68,517.64Z"/><path class="cls-19" d="M1581.59,523.26s50.12,15.64,59.38-15.73,22-50.46-9.65-61.77-41.39-1.19-47,8.53S1568.79,518.39,1581.59,523.26Z"/><path class="cls-32" d="M1586.26,451.27s3.2,36.49,10.74,34.91,15.86-5,14.76,6S1619.1,522.07,1630,522c23.34-.09,48.7-60,42.31-71.35C1653.86,417.9,1559.61,411.29,1586.26,451.27Z"/><path class="cls-25" d="M1593.63,550.3c.65-.27,37.32-16.72,41.6-15.31s9.64,14.52,9.64,14.52L1580.3,564.1S1585.39,553.77,1593.63,550.3Z"/><path class="cls-33" d="M1365.36,727.93,1570.9,921.44c4,3.8,9.11,5,11.29,2.69l6.94-7.37c2.18-2.32.67-7.31-3.36-11.11L1380.23,712.14c-4-3.8-9.11-5-11.29-2.69l-6.94,7.37C1359.82,719.14,1361.33,724.13,1365.36,727.93Z"/><path class="cls-23" d="M1480.71,836.52l90.19,84.92c4,3.8,9.11,5,11.29,2.69l6.94-7.37c2.18-2.32.67-7.31-3.36-11.11l-90.2-84.92Z"/><path class="cls-33" d="M1375.82,497.46a161.08,161.08,0,0,0-227.71-6.93c-.85.8-1.7,1.61-2.53,2.44a161.1,161.1,0,1,0,230.24,4.49Zm-15.65,218.47a148.4,148.4,0,1,1,6.39-209.75A148.25,148.25,0,0,1,1360.17,715.93Z"/><g class="cls-1"><path class="cls-34" d="M1150.43,709.52a148.38,148.38,0,1,0,6.39-209.74A147.67,147.67,0,0,0,1150.43,709.52Z"/></g><path class="cls-25" d="M1557,802.47c113.26-80.71,103.84-188.39,103.84-188.39-41.39,23.34-82.47,75-101.31,119.74C1558.44,759.47,1557.5,784.29,1557,802.47Z"/><path class="cls-19" d="M1445.25,765.72c-8-1.85-13.35-7.88-14.47-8.94,0,0-3.4.23.56,7.5.33.61,1.07,2.17,1.62,3.27a.71.71,0,0,1-.59,1c-4.61.35-9.24-1.48-18.12.37-1.22.26-1.58,3.19-1.53,4.44.08,2.12-.08,4.49,2.38,7.74,1.43,1.89,5.43,3.92,14.31,7.49,3.39,1.37,13.07.34,22.15-2.78l7.25-3.36L1456.56,769l-1.82.38C1451.85,770,1448.26,766.46,1445.25,765.72Z"/><path class="cls-7" d="M1625.71,564.1s101.76,19.38-29.94,166.74c-21.06,23.57-134.86,54.26-134.86,54.26s-11.54-9.82-5.72-17.78c0,0,78.35-56.89,95.59-65.94,7.76-4.07,30.1-90.81,42.74-111.7S1625.71,564.1,1625.71,564.1Z"/><path class="cls-19" d="M1429.59,619.07s-3.33-6.36-4-9.72-4.84-13.14-6.57-14.86c-.69-.69-3,.2-3.24,3.17-.12,1.29.52,3.64,1.64,6.43,1.82,4.56,1.52,10.73,2.15,12.79C1421.16,622,1429.59,619.07,1429.59,619.07Z"/></g></g></svg>